Coordinates
version=1
nRows=31
nColumns=33
inDegrees=yes

Units are S.I. units (second, meters, Newtons, ...)
Angles are in degrees.

endheader
time	ground_thorax_rot_x	ground_thorax_rot_y	ground_thorax_rot_z	ground_thorax_tx	ground_thorax_ty	ground_thorax_tz	clav_prot_r	clav_elev_r	scapula_abduction_r	scapula_elevation_r	scapula_upward_rot_r	scapula_winging_r	shoulder_elv_r	plane_of_elev_r	axial_rot_r	elbow_flexion_r	pro_sup_r	wrist_flex_r	wrist_dev_r	clav_prot_l	clav_elev_l	scapula_abduction_l	scapula_elevation_l	scapula_upward_rot_l	scapula_winging_l	shoulder_elv_l	plane_of_elev_l	axial_rot_l	elbow_flexion_l	pro_sup_l	wrist_flex_l	wrist_dev_l	
6.3300	32.301607	35.946776	37.784636	-10.543777	774.587787	-44.777177	12.838861	35.644762	26.291037	45.000000	-45.000000	995.501390	-2088.527638	20.099580	-154.756993	1800.939045	-191.200508	11.813386	13.983719	-11.663071	-45.000000	-34.931424	45.000000	-45.000000	-5656.961569	-1364.704187	22.600049	16.767508	1429.310686	44.085558	12.264304	-15.444623	
6.3400	32.368568	35.736013	37.639510	-12.802386	775.688195	-44.548342	12.855777	35.598474	26.268553	45.000000	-45.000000	995.363092	-2088.476185	20.133042	-154.856053	1800.949683	-191.395469	11.811641	14.009441	-11.560895	-45.000000	-35.032944	45.000000	-45.000000	-5656.878107	-1364.605309	22.645616	16.954119	1429.282362	43.880651	12.330178	-15.491427	
6.3500	32.431141	35.520175	37.501511	-15.054945	776.848197	-44.326127	12.874103	35.549702	26.247740	45.000000	-45.000000	995.226280	-2088.423959	20.166687	-154.963855	1800.959802	-191.604805	11.808012	14.036532	-11.455190	-45.000000	-35.137101	45.000000	-45.000000	-5656.794866	-1364.503765	22.692807	17.157299	1429.252897	43.664094	12.402942	-15.534352	
6.3600	32.495694	35.290869	37.357497	-17.298671	778.062504	-44.111265	12.883357	35.513314	26.235291	45.000000	-45.000000	995.088448	-2088.373820	20.199721	-155.067604	1800.958790	-191.821633	11.807187	14.065782	-11.350922	-45.000000	-35.245010	45.000000	-45.000000	-5656.712262	-1364.408006	22.742299	17.380008	1429.225435	43.436289	12.482325	-15.575383	
6.3700	32.561222	35.051871	37.206594	-19.529558	779.325693	-43.903988	12.890465	35.479393	26.226446	45.000000	-45.000000	994.947362	-2088.323793	20.234144	-155.176067	1800.948161	-192.043172	11.806851	14.100930	-11.246608	-45.000000	-35.356531	45.000000	-45.000000	-5656.629994	-1364.316919	22.797256	17.623414	1429.202744	43.197656	12.568132	-15.616730	
6.3800	32.629161	34.798435	37.046337	-21.743060	780.632677	-43.704190	12.889427	35.456799	26.228073	45.000000	-45.000000	994.800858	-2088.277729	20.269596	-155.284206	1800.925416	-192.265074	11.809774	14.140412	-11.146672	-45.000000	-35.469777	45.000000	-45.000000	-5656.547273	-1364.231381	22.858554	17.890572	1429.182958	42.951371	12.659906	-15.658560	
6.3900	32.697101	34.536354	36.881898	-23.935129	781.979174	-43.511648	12.884923	35.438844	26.236892	45.000000	-45.000000	994.650605	-2088.233820	20.303597	-155.394348	1800.895466	-192.486816	11.814437	14.183760	-11.050096	-45.000000	-35.583634	45.000000	-45.000000	-5656.465754	-1364.148999	22.925199	18.178102	1429.167479	42.701083	12.756058	-15.701789	
6.4000	32.764080	34.266654	36.716631	-26.102114	783.361262	-43.326227	12.877122	35.425467	26.254606	45.000000	-45.000000	994.496246	-2088.193293	20.336162	-155.504905	1800.861586	-192.708988	11.820610	14.229682	-10.958202	-45.000000	-35.696185	45.000000	-45.000000	-5656.383687	-1364.070179	22.997065	18.478124	1429.156680	42.452305	12.855493	-15.748052	
6.4100	32.826494	33.994969	36.554546	-28.241067	784.775173	-43.147970	12.869482	35.410432	26.274713	45.000000	-45.000000	994.342308	-2088.152527	20.366397	-155.616749	1800.827301	-192.934160	11.826740	14.277063	-10.868829	-45.000000	-35.807671	45.000000	-45.000000	-5656.303633	-1363.993446	23.071617	18.782193	1429.152367	42.210669	12.954828	-15.798120	
6.4200	32.885308	33.719612	36.397135	-30.349217	786.216657	-42.977136	12.860142	35.397807	26.301894	45.000000	-45.000000	994.186886	-2088.113422	20.395267	-155.725476	1800.793020	-193.163640	11.834197	14.323760	-10.783603	-45.000000	-35.917245	45.000000	-45.000000	-5656.224585	-1363.919032	23.149063	19.089818	1429.153029	41.983630	13.052484	-15.853457	
6.4300	32.932543	33.446952	36.251541	-32.424177	787.681001	-42.814128	12.853575	35.379283	26.324179	45.000000	-45.000000	994.038637	-2088.070505	20.422631	-155.830125	1800.761720	-193.399952	11.841119	14.367917	-10.695698	-45.000000	-36.028686	45.000000	-45.000000	-5656.150056	-1363.842517	23.225175	19.390279	1429.157210	41.777851	13.143654	-15.912023	
6.4400	32.969027	33.178872	36.119190	-34.463719	789.162900	-42.659405	12.849346	35.355608	26.341557	45.000000	-45.000000	993.894534	-2088.023894	20.450060	-155.925103	1800.733301	-193.643851	11.848048	14.408381	-10.605948	-45.000000	-36.140068	45.000000	-45.000000	-5656.079210	-1363.763846	23.299818	19.681979	1429.166135	41.599035	13.226325	-15.975355	
6.4500	32.990955	32.917752	36.002576	-36.466270	790.656848	-42.513375	12.849885	35.322936	26.347419	45.000000	-45.000000	993.759985	-2087.970942	20.477218	-156.014841	1800.709235	-193.896420	11.853598	14.444511	-10.511510	-45.000000	-36.253064	45.000000	-45.000000	-5656.013531	-1363.679764	23.371216	19.959192	1429.178877	41.451672	13.297183	-16.042019	
6.4600	33.002581	32.661938	35.899103	-38.431081	792.157421	-42.376329	12.850425	35.288141	26.346544	45.000000	-45.000000	993.629093	-2087.914891	20.504633	-156.095566	1800.685862	-194.155656	11.860102	14.476084	-10.413787	-45.000000	-36.366136	45.000000	-45.000000	-5655.949380	-1363.593032	23.441631	20.227027	1429.195816	41.339494	13.356925	-16.114029	
6.4700	33.004359	32.410365	35.806307	-40.358405	793.659575	-42.248428	12.850990	35.252093	26.339552	45.000000	-45.000000	993.503802	-2087.856566	20.531276	-156.172076	1800.663545	-194.420003	11.866975	14.504191	-10.312854	-45.000000	-36.480651	45.000000	-45.000000	-5655.886459	-1363.504628	23.510947	20.484473	1429.217518	41.264274	13.405524	-16.192081	
6.4800	33.003738	32.159691	35.718157	-42.249229	795.158796	-42.129747	12.847366	35.218880	26.336051	45.000000	-45.000000	993.376394	-2087.799423	20.558417	-156.242441	1800.640511	-194.686413	11.875007	14.531717	-10.210332	-45.000000	-36.594209	45.000000	-45.000000	-5655.819641	-1363.420814	23.582621	20.738421	1429.245338	41.225725	13.447343	-16.280490	
6.4900	33.001576	31.909028	35.632506	-44.104977	796.651270	-42.020371	12.841798	35.186119	26.335822	45.000000	-45.000000	993.249748	-2087.742409	20.585067	-156.310505	1800.618777	-194.953952	11.882383	14.560258	-10.108666	-45.000000	-36.705115	45.000000	-45.000000	-5655.751744	-1363.340783	23.655212	20.986179	1429.279089	41.221613	13.482830	-16.378040	
6.5000	32.998192	31.659696	35.549487	-45.927108	798.134075	-41.920529	12.833715	35.154423	26.338667	45.000000	-45.000000	993.122660	-2087.686103	20.611880	-156.373546	1800.598863	-195.222722	11.888659	14.590205	-10.006417	-45.000000	-36.813578	45.000000	-45.000000	-5655.680945	-1363.265361	23.729109	21.227638	1429.317110	41.248678	13.513515	-16.482844	
6.5100	32.991580	31.411864	35.470665	-47.716862	799.605421	-41.830713	12.825757	35.122988	26.342353	45.000000	-45.000000	992.998340	-2087.630265	20.637572	-156.431742	1800.581317	-195.495364	11.892864	14.620781	-9.907143	-45.000000	-36.918088	45.000000	-45.000000	-5655.611420	-1363.191757	23.800816	21.458668	1429.359086	41.302647	13.538655	-16.591046	
6.5200	32.980217	31.167356	35.398404	-49.474960	801.064710	-41.751741	12.818398	35.091397	26.345262	45.000000	-45.000000	992.875631	-2087.574108	20.662518	-156.483868	1800.564550	-195.776209	11.894850	14.651660	-9.808371	-45.000000	-37.019352	45.000000	-45.000000	-5655.541385	-1363.119003	23.870980	21.678179	1429.404589	41.378866	13.559288	-16.700318	
6.5300	32.961870	30.927077	35.334331	-51.201761	802.512738	-41.684734	12.812092	35.059390	26.343543	45.000000	-45.000000	992.755997	-2087.517579	20.685659	-156.529806	1800.546131	-196.070648	11.894624	14.681749	-9.709543	-45.000000	-37.117892	45.000000	-45.000000	-5655.472667	-1363.045470	23.938729	21.886219	1429.453949	41.472730	13.574768	-16.807223	
6.5400	32.935885	30.691234	35.277658	-52.897087	803.951383	-41.631029	12.807841	35.026999	26.336989	45.000000	-45.000000	992.641015	-2087.460717	20.708360	-156.571032	1800.528073	-196.384073	11.890613	14.710904	-9.609265	-45.000000	-37.215924	45.000000	-45.000000	-5655.404918	-1362.970498	24.003488	22.081668	1429.504372	41.579852	13.586370	-16.909909	
6.5500	32.902842	30.459954	35.228135	-54.560345	805.383386	-41.592029	12.805074	34.994690	26.327518	45.000000	-45.000000	992.528709	-2087.405961	20.729556	-156.604876	1800.508449	-196.720214	11.883501	14.738435	-9.509138	-45.000000	-37.312441	45.000000	-45.000000	-5655.339126	-1362.894684	24.065162	22.268780	1429.556015	41.695936	13.594185	-17.007514	
6.5600	32.866676	30.230919	35.180354	-56.190391	806.811804	-41.569086	12.804196	34.963356	26.320095	45.000000	-45.000000	992.417204	-2087.354188	20.751226	-156.636267	1800.487746	-197.081940	11.872681	14.765865	-9.410095	-45.000000	-37.407063	45.000000	-45.000000	-5655.273157	-1362.819591	24.126017	22.445851	1429.608289	41.816588	13.601153	-17.102780	
6.5700	32.827103	30.004783	35.133757	-57.785781	808.239805	-41.563349	12.803772	34.931595	26.314166	45.000000	-45.000000	992.306063	-2087.306955	20.773412	-156.665068	1800.463537	-197.469061	11.859563	14.792986	-9.309192	-45.000000	-37.501293	45.000000	-45.000000	-5655.206228	-1362.745408	24.187443	22.619243	1429.659638	41.937868	13.606941	-17.195232	
6.5800	32.790245	29.776455	35.078474	-59.344578	809.670155	-41.575716	12.804738	34.901685	26.310751	45.000000	-45.000000	992.195414	-2087.262594	20.803700	-156.695460	1800.435895	-197.879075	11.844245	14.821505	-9.208310	-45.000000	-37.595128	45.000000	-45.000000	-5655.138363	-1362.675186	24.252509	22.787810	1429.706593	42.055932	13.615047	-17.288082	
6.5900	32.748793	29.556358	35.026137	-60.864662	811.105239	-41.606755	12.806150	34.870393	26.309961	45.000000	-45.000000	992.084240	-2087.221663	20.831492	-156.731219	1800.403908	-198.308730	11.829609	14.847779	-9.105466	-45.000000	-37.688767	45.000000	-45.000000	-5655.072094	-1362.605013	24.317017	22.953629	1429.752180	42.166931	13.619502	-17.378314	
6.6000	32.702200	29.343195	34.977676	-62.343800	812.546968	-41.656710	12.809457	34.837474	26.310096	45.000000	-45.000000	991.977441	-2087.180376	20.857905	-156.776843	1800.366856	-198.756520	11.815941	14.871647	-9.002610	-45.000000	-37.781465	45.000000	-45.000000	-5655.007521	-1362.533157	24.377751	23.105741	1429.797946	42.267949	13.620962	-17.468027	
6.6100	32.644414	29.144475	34.941524	-63.779916	813.996940	-41.725459	12.812992	34.800933	26.311026	45.000000	-45.000000	991.874097	-2087.139181	20.876772	-156.832889	1800.324290	-199.220989	11.804687	14.891127	-8.895368	-45.000000	-37.875156	45.000000	-45.000000	-5654.944866	-1362.458354	24.432827	23.248945	1429.847384	42.356410	13.615306	-17.556145	
6.6200	32.580664	28.949608	34.909284	-65.171118	815.456463	-41.812557	12.818299	34.763774	26.315364	45.000000	-45.000000	991.777373	-2087.096840	20.898172	-156.897974	1800.276791	-199.699597	11.795076	14.908180	-8.790386	-45.000000	-37.967930	45.000000	-45.000000	-5654.886461	-1362.382791	24.483851	23.379290	1429.897747	42.430604	13.607128	-17.646289	
6.6300	32.519415	28.761474	34.867364	-66.515804	816.926598	-41.917228	12.823012	34.726463	26.322267	45.000000	-45.000000	991.677839	-2087.056459	20.922830	-156.967948	1800.221591	-200.185763	11.788718	14.927485	-8.680040	-45.000000	-38.062139	45.000000	-45.000000	-5654.829366	-1362.316833	24.542971	23.509716	1429.947501	42.488443	13.601540	-17.744832	
